<svg width="196" height="200" viewBox="0 0 196 200" fill="none" xmlns="http://www.w3.org/2000/svg">
  <circle cx="98" cy="106" r="52" stroke="#FAFAFA" stroke-width="6"/>
  <path d="M101 68C90.5 68 82 76.5 82 87C82 97.5 90.5 106 101 106C110.2 106 117.8 99.5 119.5 90.8C114.3 95.8 107.2 98.9 99.3 98.9C83.3 98.9 70.3 85.9 70.3 69.9C70.3 59.4 75.9 50.2 84.2 45C68.3 47.9 56.3 61.8 56.3 78.6C56.3 97.6 71.7 113 90.7 113C109.7 113 125.1 97.6 125.1 78.6C125.1 75 124.5 71.6 123.4 68.4C121.7 68.1 119.9 68 118.1 68H101Z" fill="#FAFAFA"/>
  <circle cx="130" cy="83" r="4.5" fill="#FAFAFA"/>
  <path d="M56.7 46.5L60.4 39.6L63.8 46.5L70.7 50L63.8 53.4L60.4 60.3L56.7 53.4L49.8 50L56.7 46.5Z" fill="#FAFAFA"/>
</svg>
